<svg xmlns="http://www.w3.org/2000/svg" xmlns:xlink="http://www.w3.org/1999/xlink" width="500" zoomAndPan="magnify" viewBox="0 0 375 374.999991" height="500" preserveAspectRatio="xMidYMid meet" version="1.0"><defs><g/><clipPath id="f7b6724982"><path d="M 44 125.386719 L 85.5 125.386719 L 85.5 216.886719 L 44 216.886719 Z M 44 125.386719 " clip-rule="nonzero"/></clipPath><clipPath id="2da6e83855"><path d="M 0 125.386719 L 41 125.386719 L 41 216.886719 L 0 216.886719 Z M 0 125.386719 " clip-rule="nonzero"/></clipPath></defs><path fill="#545454" d="M 55.871094 202.09375 C 55.871094 203.375 54.832031 204.417969 53.554688 204.417969 C 52.273438 204.417969 51.234375 203.375 51.234375 202.09375 C 51.234375 200.808594 52.273438 199.765625 53.554688 199.765625 C 54.832031 199.765625 55.871094 200.808594 55.871094 202.09375 " fill-opacity="1" fill-rule="nonzero"/><path fill="#ffffff" d="M 70.015625 194.289062 C 70.015625 195.570312 68.976562 196.613281 67.695312 196.613281 C 66.417969 196.613281 65.378906 195.570312 65.378906 194.289062 C 65.378906 193.003906 66.417969 191.960938 67.695312 191.960938 C 68.976562 191.960938 70.015625 193.003906 70.015625 194.289062 " fill-opacity="1" fill-rule="nonzero"/><path fill="#545454" d="M 5.859375 184.480469 C 4.675781 183.339844 4.023438 181.808594 4.023438 180.167969 C 4.023438 178.65625 4.59375 177.214844 5.628906 176.097656 L 5.75 175.96875 C 6.246094 175.433594 6.359375 174.640625 6.03125 173.988281 L 5.953125 173.828125 C 5.527344 172.984375 5.3125 172.082031 5.3125 171.152344 C 5.3125 169.640625 5.882812 168.195312 6.917969 167.082031 L 7.066406 166.921875 C 7.640625 166.296875 7.691406 165.347656 7.175781 164.667969 L 7.042969 164.496094 C 6.152344 163.320312 5.730469 161.898438 5.839844 160.417969 C 6.113281 156.832031 9.902344 153.902344 13.382812 155.3125 C 15.078125 156 16.378906 157.5 16.8125 159.285156 C 17.003906 160.058594 17.675781 160.617188 18.472656 160.582031 L 18.664062 160.574219 C 19.695312 160.53125 20.410156 159.550781 20.171875 158.539062 C 19.21875 154.476562 15.578125 151.441406 11.242188 151.441406 C 10.925781 151.441406 10.617188 151.460938 10.308594 151.492188 C 10.296875 151.339844 10.285156 151.1875 10.285156 151.03125 C 10.285156 149.078125 11.457031 147.34375 13.265625 146.613281 L 13.3125 146.589844 C 14.09375 146.25 14.574219 145.453125 14.515625 144.601562 L 14.511719 144.5625 C 14.503906 144.460938 14.496094 144.359375 14.496094 144.253906 C 14.496094 141.972656 16.113281 140.003906 18.34375 139.574219 C 19.300781 139.386719 19.984375 138.542969 19.96875 137.566406 C 19.96875 137.519531 19.964844 137.476562 19.960938 137.429688 C 19.988281 134.820312 22.109375 132.703125 24.71875 132.703125 C 25.457031 132.703125 26.136719 132.847656 26.730469 133.3125 C 27.507812 133.917969 28.136719 134.777344 28.46875 135.703125 C 28.640625 136.183594 28.738281 136.660156 28.773438 137.128906 C 28.839844 138.046875 29.640625 138.710938 30.550781 138.609375 L 31.085938 138.546875 C 31.914062 138.453125 32.515625 137.722656 32.457031 136.894531 C 32.273438 134.261719 30.984375 131.988281 29.082031 130.472656 C 29.964844 129.796875 31.042969 129.414062 32.183594 129.414062 C 34.8125 129.414062 37.03125 131.429688 37.339844 134.105469 L 37.378906 134.367188 L 37.378906 207.839844 L 37.347656 208.125 C 37.070312 210.839844 34.851562 212.886719 32.183594 212.886719 C 30.890625 212.886719 29.652344 212.394531 28.691406 211.503906 L 28.617188 211.433594 C 28.289062 211.125 27.851562 210.957031 27.402344 210.964844 L 27.300781 210.964844 L 27.171875 210.972656 C 24.6875 210.949219 22.492188 209.371094 21.636719 207.09375 C 24.425781 205.597656 26.328125 202.648438 26.328125 199.261719 C 26.328125 199.199219 26.328125 199.132812 26.324219 199.066406 C 26.304688 198.101562 25.382812 197.410156 24.449219 197.648438 L 24.203125 197.710938 C 23.496094 197.886719 23.007812 198.53125 23.007812 199.261719 C 23 201.9375 21.113281 204.164062 18.613281 204.6875 C 18.390625 204.714844 18.171875 204.730469 17.960938 204.730469 C 14.671875 204.730469 11.992188 202.046875 11.992188 198.746094 C 11.992188 198.554688 12.003906 198.355469 12.023438 198.152344 L 12.046875 197.910156 C 12.136719 197.019531 11.542969 196.195312 10.675781 196.027344 C 9.320312 195.761719 7.996094 195.269531 7.039062 194.265625 C 4.992188 192.113281 4.847656 189.179688 6.183594 186.972656 L 6.292969 186.792969 C 6.714844 186.09375 6.597656 185.191406 6.011719 184.625 L 5.859375 184.480469 " fill-opacity="1" fill-rule="nonzero"/><g clip-path="url(#f7b6724982)"><path fill="#ffffff" d="M 79.640625 184.480469 L 79.492188 184.625 C 78.902344 185.191406 78.785156 186.09375 79.210938 186.792969 L 79.316406 186.972656 C 80.652344 189.179688 80.507812 192.113281 78.460938 194.265625 C 77.503906 195.269531 76.179688 195.761719 74.824219 196.027344 C 73.957031 196.195312 73.363281 197.019531 73.453125 197.910156 L 73.476562 198.152344 C 73.496094 198.355469 73.507812 198.554688 73.507812 198.746094 C 73.507812 202.046875 70.828125 204.730469 67.539062 204.730469 C 67.328125 204.730469 67.109375 204.714844 66.886719 204.6875 C 64.386719 204.164062 62.5 201.9375 62.492188 199.261719 C 62.492188 198.53125 62.003906 197.886719 61.296875 197.710938 L 61.050781 197.648438 C 60.117188 197.410156 59.195312 198.101562 59.175781 199.066406 C 59.171875 199.132812 59.171875 199.199219 59.171875 199.261719 C 59.171875 202.648438 61.074219 205.597656 63.863281 207.09375 C 63.007812 209.371094 60.8125 210.949219 58.328125 210.972656 L 58.199219 210.964844 L 58.097656 210.964844 C 57.648438 210.957031 57.210938 211.125 56.882812 211.429688 L 56.808594 211.503906 C 55.847656 212.394531 54.609375 212.886719 53.316406 212.886719 C 50.648438 212.886719 48.429688 210.839844 48.152344 208.125 L 48.121094 207.839844 L 48.121094 134.367188 L 48.160156 134.105469 C 48.46875 131.429688 50.6875 129.414062 53.316406 129.414062 C 54.457031 129.414062 55.535156 129.796875 56.417969 130.472656 C 54.515625 131.988281 53.230469 134.261719 53.042969 136.894531 C 52.984375 137.722656 53.585938 138.453125 54.414062 138.546875 L 54.949219 138.609375 C 55.859375 138.710938 56.660156 138.046875 56.726562 137.128906 C 56.761719 136.660156 56.859375 136.183594 57.03125 135.703125 C 57.363281 134.777344 57.992188 133.917969 58.769531 133.3125 C 59.363281 132.847656 60.042969 132.703125 60.78125 132.703125 C 63.390625 132.703125 65.511719 134.820312 65.539062 137.429688 C 65.535156 137.476562 65.53125 137.519531 65.53125 137.566406 C 65.515625 138.542969 66.199219 139.386719 67.15625 139.574219 C 69.386719 140.003906 71.007812 141.972656 71.007812 144.253906 C 71.007812 144.359375 70.996094 144.460938 70.988281 144.5625 L 70.984375 144.601562 C 70.925781 145.453125 71.40625 146.25 72.1875 146.589844 L 72.234375 146.613281 C 74.042969 147.34375 75.214844 149.078125 75.214844 151.03125 C 75.214844 151.1875 75.203125 151.339844 75.191406 151.492188 C 74.882812 151.460938 74.574219 151.441406 74.257812 151.441406 C 69.921875 151.441406 66.28125 154.476562 65.328125 158.539062 C 65.089844 159.550781 65.804688 160.53125 66.835938 160.574219 L 67.027344 160.582031 C 67.824219 160.617188 68.496094 160.058594 68.6875 159.285156 C 69.121094 157.5 70.421875 156 72.117188 155.3125 C 75.597656 153.902344 79.386719 156.832031 79.660156 160.417969 C 79.769531 161.898438 79.347656 163.320312 78.457031 164.496094 L 78.324219 164.667969 C 77.8125 165.347656 77.859375 166.296875 78.433594 166.921875 L 78.582031 167.082031 C 79.617188 168.195312 80.1875 169.640625 80.1875 171.152344 C 80.1875 172.082031 79.972656 172.984375 79.546875 173.828125 L 79.46875 173.988281 C 79.140625 174.640625 79.253906 175.433594 79.75 175.96875 L 79.871094 176.097656 C 80.90625 177.214844 81.476562 178.65625 81.476562 180.167969 C 81.476562 181.808594 80.824219 183.339844 79.640625 184.480469 Z M 85.480469 180.167969 C 85.480469 178.085938 84.835938 176.082031 83.648438 174.398438 C 84.007812 173.355469 84.191406 172.265625 84.191406 171.152344 C 84.191406 169.15625 83.597656 167.230469 82.503906 165.59375 C 83.277344 164.148438 83.679688 162.546875 83.679688 160.882812 C 83.679688 157.425781 81.929688 154.285156 79.101562 152.464844 C 79.179688 151.992188 79.21875 151.515625 79.21875 151.03125 C 79.21875 147.902344 77.59375 145.078125 74.980469 143.507812 C 74.695312 140.152344 72.511719 137.269531 69.429688 136.066406 C 68.757812 131.886719 65.136719 128.6875 60.78125 128.6875 C 60.628906 128.6875 60.480469 128.691406 60.328125 128.695312 C 58.589844 126.609375 56.054688 125.394531 53.316406 125.394531 C 49.238281 125.394531 45.722656 128.105469 44.539062 131.933594 L 44.539062 210.355469 C 45.714844 214.191406 49.210938 216.90625 53.316406 216.90625 C 55.355469 216.90625 57.320312 216.222656 58.921875 214.96875 C 62.753906 214.71875 66.097656 212.257812 67.519531 208.75 L 67.539062 208.75 C 72.78125 208.75 77.089844 204.675781 77.480469 199.519531 C 81.457031 198.15625 84.191406 194.421875 84.191406 190.070312 C 84.191406 188.753906 83.929688 187.457031 83.425781 186.246094 C 84.761719 184.507812 85.480469 182.398438 85.480469 180.167969 " fill-opacity="1" fill-rule="nonzero"/></g><g clip-path="url(#2da6e83855)"><path fill="#ffffff" d="M 4.023438 180.167969 C 4.023438 178.65625 4.59375 177.214844 5.628906 176.097656 L 5.75 175.96875 C 6.246094 175.433594 6.359375 174.640625 6.03125 173.988281 L 5.953125 173.828125 C 5.527344 172.984375 5.3125 172.082031 5.3125 171.152344 C 5.3125 169.640625 5.882812 168.195312 6.917969 167.082031 L 7.066406 166.921875 C 7.640625 166.296875 7.691406 165.347656 7.175781 164.667969 L 7.042969 164.496094 C 6.152344 163.320312 5.730469 161.898438 5.839844 160.417969 C 6.113281 156.832031 9.902344 153.902344 13.382812 155.3125 C 15.078125 156 16.378906 157.5 16.8125 159.285156 C 17.003906 160.058594 17.675781 160.617188 18.472656 160.582031 L 18.664062 160.574219 C 19.695312 160.53125 20.410156 159.550781 20.171875 158.539062 C 19.21875 154.476562 15.578125 151.441406 11.242188 151.441406 C 10.925781 151.441406 10.617188 151.460938 10.308594 151.492188 C 10.296875 151.339844 10.285156 151.1875 10.285156 151.03125 C 10.285156 149.078125 11.457031 147.34375 13.265625 146.613281 L 13.3125 146.589844 C 14.09375 146.25 14.574219 145.453125 14.515625 144.601562 L 14.511719 144.5625 C 14.503906 144.460938 14.496094 144.359375 14.496094 144.253906 C 14.496094 141.972656 16.113281 140.003906 18.34375 139.574219 C 19.300781 139.386719 19.984375 138.542969 19.96875 137.566406 C 19.96875 137.519531 19.964844 137.476562 19.960938 137.429688 C 19.988281 134.820312 22.109375 132.703125 24.71875 132.703125 C 25.457031 132.703125 26.136719 132.847656 26.730469 133.3125 C 27.507812 133.917969 28.136719 134.777344 28.46875 135.703125 C 28.640625 136.183594 28.738281 136.660156 28.773438 137.128906 C 28.839844 138.046875 29.640625 138.710938 30.550781 138.609375 L 31.085938 138.546875 C 31.914062 138.453125 32.515625 137.722656 32.457031 136.894531 C 32.273438 134.261719 30.984375 131.988281 29.082031 130.472656 C 29.964844 129.796875 31.042969 129.414062 32.183594 129.414062 C 34.8125 129.414062 37.03125 131.429688 37.339844 134.105469 L 37.378906 134.367188 L 37.378906 207.839844 L 37.347656 208.125 C 37.070312 210.839844 34.851562 212.886719 32.183594 212.886719 C 30.890625 212.886719 29.652344 212.394531 28.691406 211.503906 L 28.617188 211.429688 C 28.289062 211.125 27.851562 210.957031 27.402344 210.964844 L 27.300781 210.964844 L 27.171875 210.972656 C 24.6875 210.949219 22.492188 209.371094 21.636719 207.09375 C 24.425781 205.597656 26.328125 202.648438 26.328125 199.261719 C 26.328125 199.199219 26.328125 199.132812 26.324219 199.066406 C 26.304688 198.101562 25.382812 197.410156 24.449219 197.648438 L 24.203125 197.710938 C 23.496094 197.886719 23.007812 198.53125 23.007812 199.261719 C 23 201.9375 21.113281 204.164062 18.613281 204.6875 C 18.390625 204.714844 18.171875 204.730469 17.960938 204.730469 C 14.671875 204.730469 11.992188 202.046875 11.992188 198.746094 C 11.992188 198.554688 12.003906 198.355469 12.023438 198.152344 L 12.046875 197.910156 C 12.136719 197.019531 11.542969 196.195312 10.675781 196.027344 C 9.320312 195.761719 7.996094 195.269531 7.039062 194.265625 C 4.992188 192.113281 4.847656 189.179688 6.183594 186.972656 L 6.292969 186.792969 C 6.714844 186.09375 6.597656 185.191406 6.011719 184.625 L 5.859375 184.480469 C 4.675781 183.339844 4.023438 181.808594 4.023438 180.167969 Z M 2.074219 186.246094 C 1.570312 187.457031 1.308594 188.753906 1.308594 190.070312 C 1.308594 194.421875 4.042969 198.15625 8.019531 199.519531 C 8.410156 204.675781 12.71875 208.75 17.960938 208.75 L 17.980469 208.75 C 19.402344 212.257812 22.746094 214.71875 26.578125 214.96875 C 28.179688 216.222656 30.144531 216.90625 32.183594 216.90625 C 36.289062 216.90625 39.785156 214.191406 40.960938 210.355469 L 40.960938 131.933594 C 39.777344 128.105469 36.261719 125.394531 32.183594 125.394531 C 29.445312 125.394531 26.910156 126.609375 25.171875 128.695312 C 25.019531 128.691406 24.871094 128.6875 24.71875 128.6875 C 20.363281 128.6875 16.742188 131.886719 16.070312 136.066406 C 12.988281 137.269531 10.804688 140.152344 10.519531 143.507812 C 7.90625 145.078125 6.28125 147.902344 6.28125 151.03125 C 6.28125 151.515625 6.320312 151.992188 6.398438 152.464844 C 3.570312 154.285156 1.820312 157.425781 1.820312 160.882812 C 1.820312 162.546875 2.222656 164.148438 2.996094 165.59375 C 1.902344 167.230469 1.308594 169.15625 1.308594 171.152344 C 1.308594 172.265625 1.492188 173.355469 1.851562 174.398438 C 0.664062 176.082031 0.0195312 178.085938 0.0195312 180.167969 C 0.0195312 182.398438 0.738281 184.507812 2.074219 186.246094 " fill-opacity="1" fill-rule="nonzero"/></g><path fill="#545454" d="M 56.148438 150.089844 C 56.148438 151.527344 54.984375 152.691406 53.554688 152.691406 C 52.121094 152.691406 50.960938 151.527344 50.960938 150.089844 C 50.960938 148.652344 52.121094 147.488281 53.554688 147.488281 C 54.984375 147.488281 56.148438 148.652344 56.148438 150.089844 " fill-opacity="1" fill-rule="nonzero"/><path fill="#ffffff" d="M 68.675781 149.347656 C 68.675781 150.785156 67.515625 151.949219 66.082031 151.949219 C 64.652344 151.949219 63.488281 150.785156 63.488281 149.347656 C 63.488281 147.910156 64.652344 146.746094 66.082031 146.746094 C 67.515625 146.746094 68.675781 147.910156 68.675781 149.347656 " fill-opacity="1" fill-rule="nonzero"/><path fill="#ffffff" d="M 60.160156 163.59375 C 60.160156 166.160156 58.085938 168.238281 55.53125 168.238281 C 52.972656 168.238281 50.898438 166.160156 50.898438 163.59375 C 50.898438 161.027344 52.972656 158.949219 55.53125 158.949219 C 58.085938 158.949219 60.160156 161.027344 60.160156 163.59375 " fill-opacity="1" fill-rule="nonzero"/><path fill="#ffffff" d="M 59.417969 188.742188 C 59.417969 191.308594 57.347656 193.386719 54.789062 193.386719 C 52.230469 193.386719 50.15625 191.308594 50.15625 188.742188 C 50.15625 186.175781 52.230469 184.097656 54.789062 184.097656 C 57.347656 184.097656 59.417969 186.175781 59.417969 188.742188 " fill-opacity="1" fill-rule="nonzero"/><path fill="#545454" d="M 70.714844 179.449219 C 70.714844 182.015625 68.640625 184.097656 66.082031 184.097656 C 63.523438 184.097656 61.453125 182.015625 61.453125 179.449219 C 61.453125 176.886719 63.523438 174.804688 66.082031 174.804688 C 68.640625 174.804688 70.714844 176.886719 70.714844 179.449219 " fill-opacity="1" fill-rule="nonzero"/><path fill="#545454" d="M 72.332031 165.917969 C 72.332031 167.203125 71.292969 168.242188 70.015625 168.242188 C 68.734375 168.242188 67.695312 167.203125 67.695312 165.917969 C 67.695312 164.632812 68.734375 163.59375 70.015625 163.59375 C 71.292969 163.59375 72.332031 164.632812 72.332031 165.917969 " fill-opacity="1" fill-rule="nonzero"/><path fill="#545454" d="M 62.476562 142.78125 C 62.476562 144.066406 61.4375 145.105469 60.160156 145.105469 C 58.878906 145.105469 57.84375 144.066406 57.84375 142.78125 C 57.84375 141.496094 58.878906 140.457031 60.160156 140.457031 C 61.4375 140.457031 62.476562 141.496094 62.476562 142.78125 " fill-opacity="1" fill-rule="nonzero"/><path fill="#545454" d="M 59.421875 174.125 C 59.421875 175.40625 58.386719 176.449219 57.105469 176.449219 C 55.824219 176.449219 54.789062 175.40625 54.789062 174.125 C 54.789062 172.839844 55.824219 171.800781 57.105469 171.800781 C 58.386719 171.800781 59.421875 172.839844 59.421875 174.125 " fill-opacity="1" fill-rule="nonzero"/><path fill="#ffffff" d="M 78.222656 181.773438 C 78.222656 183.058594 77.183594 184.101562 75.902344 184.101562 C 74.625 184.101562 73.585938 183.058594 73.585938 181.773438 C 73.585938 180.492188 74.625 179.449219 75.902344 179.449219 C 77.183594 179.449219 78.222656 180.492188 78.222656 181.773438 " fill-opacity="1" fill-rule="nonzero"/><g fill="#ffffff" fill-opacity="1"><g transform="translate(92.380041, 194.3761)"><g><path d="M 19.492188 1.167969 C 28.230469 1.167969 36.449219 -2.921875 36.449219 -12.800781 C 36.449219 -21.570312 29.496094 -25.4375 23.226562 -28.71875 C 17.542969 -31.609375 12.734375 -33.816406 12.734375 -38.171875 C 12.734375 -41.710938 15.851562 -43.074219 19.71875 -43.074219 C 22.902344 -43.074219 26.636719 -42.199219 30.113281 -40.738281 C 30.894531 -40.410156 31.511719 -40.703125 31.835938 -41.484375 L 33.558594 -46.648438 C 33.882812 -47.429688 33.65625 -48.046875 32.84375 -48.371094 C 28.359375 -50.058594 23.488281 -51.066406 19.554688 -51.066406 C 11.175781 -51.066406 3.507812 -47.101562 3.507812 -37.519531 C 3.507812 -29.527344 9.226562 -25.726562 15.269531 -22.414062 C 21.40625 -19.101562 27.191406 -16.761719 27.191406 -12.34375 C 27.191406 -8.671875 24.039062 -6.789062 19.265625 -6.789062 C 15.851562 -6.789062 11.566406 -7.601562 6.757812 -9.84375 C 5.945312 -10.199219 5.328125 -10.003906 5.003906 -9.226562 L 2.988281 -3.832031 C 2.664062 -3.019531 2.890625 -2.4375 3.734375 -2.046875 C 9.875 0.355469 14.714844 1.167969 19.492188 1.167969 Z M 19.492188 1.167969 "/></g></g></g><g fill="#ffffff" fill-opacity="1"><g transform="translate(128.730693, 194.3761)"><g><path d="M 12.734375 0 C 13.609375 0 14.066406 -0.453125 14.066406 -1.332031 L 14.066406 -48.566406 C 14.066406 -49.441406 13.609375 -49.898438 12.734375 -49.898438 L 6.269531 -49.898438 C 5.390625 -49.898438 4.9375 -49.441406 4.9375 -48.566406 L 4.9375 -1.332031 C 4.9375 -0.453125 5.390625 0 6.269531 0 Z M 12.734375 0 "/></g></g></g><g fill="#ffffff" fill-opacity="1"><g transform="translate(145.006114, 194.3761)"><g><path d="M 12.703125 0 C 13.578125 0 14.035156 -0.453125 14.035156 -1.332031 L 14.035156 -22.382812 L 32.191406 -0.746094 C 32.648438 -0.195312 33.167969 0 33.816406 0 L 42.914062 0 C 44.015625 0 44.375 -0.78125 43.628906 -1.625 L 22.902344 -26.152344 L 43.109375 -48.242188 C 43.886719 -49.085938 43.53125 -49.898438 42.425781 -49.898438 L 34.140625 -49.898438 C 33.460938 -49.898438 32.941406 -49.734375 32.453125 -49.183594 L 14.035156 -29.105469 L 14.035156 -48.566406 C 14.035156 -49.441406 13.578125 -49.898438 12.703125 -49.898438 L 6.269531 -49.898438 C 5.390625 -49.898438 4.9375 -49.441406 4.9375 -48.566406 L 4.9375 -1.332031 C 4.9375 -0.453125 5.390625 0 6.269531 0 Z M 12.703125 0 "/></g></g></g><g fill="#ffffff" fill-opacity="1"><g transform="translate(187.756145, 194.3761)"><g><path d="M 33.167969 0 C 34.042969 0 34.5 -0.453125 34.5 -1.332031 L 34.5 -6.757812 C 34.5 -7.601562 34.042969 -8.089844 33.167969 -8.089844 L 14.066406 -8.089844 L 14.066406 -16.4375 L 30.570312 -16.4375 C 31.445312 -16.4375 31.902344 -16.890625 31.902344 -17.769531 L 31.902344 -22.835938 C 31.902344 -23.714844 31.445312 -24.167969 30.570312 -24.167969 L 14.066406 -24.167969 L 14.066406 -41.808594 L 33.167969 -41.808594 C 34.042969 -41.808594 34.5 -42.296875 34.5 -43.140625 L 34.5 -48.566406 C 34.5 -49.441406 34.042969 -49.898438 33.167969 -49.898438 L 6.269531 -49.898438 C 5.390625 -49.898438 4.9375 -49.441406 4.9375 -48.566406 L 4.9375 -1.332031 C 4.9375 -0.453125 5.390625 0 6.269531 0 Z M 33.167969 0 "/></g></g></g><g fill="#ffffff" fill-opacity="1"><g transform="translate(222.612524, 194.3761)"><g/></g></g><g fill="#ffffff" fill-opacity="1"><g transform="translate(239.829986, 194.3761)"><g><path d="M 22.96875 0 C 36.449219 0 40.023438 -7.210938 40.023438 -14.195312 C 40.023438 -18.90625 37.746094 -23.550781 32.09375 -25.566406 C 36.222656 -27.96875 38.332031 -32.0625 38.332031 -36.9375 C 38.332031 -44.210938 34.207031 -49.898438 22.121094 -49.898438 L 6.269531 -49.898438 C 5.390625 -49.898438 4.9375 -49.441406 4.9375 -48.566406 L 4.9375 -1.332031 C 4.9375 -0.453125 5.390625 0 6.269531 0 Z M 14.066406 -41.808594 L 21.925781 -41.808594 C 28.328125 -41.808594 29.984375 -39.242188 29.984375 -35.636719 C 29.984375 -31.769531 28.359375 -29.105469 23 -29.105469 L 14.066406 -29.105469 Z M 14.066406 -21.863281 L 23.128906 -21.863281 C 28.910156 -21.863281 30.859375 -19.003906 30.859375 -15.136719 C 30.859375 -11.46875 29.527344 -8.089844 22.707031 -8.089844 L 14.066406 -8.089844 Z M 14.066406 -21.863281 "/></g></g></g><g fill="#ffffff" fill-opacity="1"><g transform="translate(280.371083, 194.3761)"><g><path d="M 29.238281 1.167969 C 44.441406 1.167969 55.679688 -9.355469 55.679688 -24.949219 C 55.679688 -40.507812 44.441406 -51.066406 29.238281 -51.066406 C 14.066406 -51.066406 2.859375 -40.507812 2.859375 -24.949219 C 2.859375 -9.355469 14.066406 1.167969 29.238281 1.167969 Z M 29.238281 -7.308594 C 19.457031 -7.308594 12.019531 -14.359375 12.019531 -24.949219 C 12.019531 -35.570312 19.425781 -42.589844 29.238281 -42.589844 C 39.046875 -42.589844 46.550781 -35.570312 46.550781 -24.949219 C 46.550781 -14.324219 39.046875 -7.308594 29.238281 -7.308594 Z M 29.238281 -7.308594 "/></g></g></g><g fill="#ffffff" fill-opacity="1"><g transform="translate(336.24472, 194.3761)"><g><path d="M 20.984375 0 C 21.863281 0 22.316406 -0.453125 22.316406 -1.332031 L 22.316406 -41.808594 L 33.136719 -41.808594 C 34.011719 -41.808594 34.464844 -42.296875 34.464844 -43.140625 L 34.464844 -48.566406 C 34.464844 -49.441406 34.011719 -49.898438 33.136719 -49.898438 L 2.339844 -49.898438 C 1.460938 -49.898438 1.007812 -49.441406 1.007812 -48.566406 L 1.007812 -43.140625 C 1.007812 -42.296875 1.460938 -41.808594 2.339844 -41.808594 L 13.125 -41.808594 L 13.125 -1.332031 C 13.125 -0.453125 13.609375 0 14.457031 0 Z M 20.984375 0 "/></g></g></g></svg>