<svg xmlns="http://www.w3.org/2000/svg" xmlns:xlink="http://www.w3.org/1999/xlink" width="500" zoomAndPan="magnify" viewBox="0 0 375 374.999991" height="500" preserveAspectRatio="xMidYMid meet" version="1.0"><defs><clipPath id="957a3eff54"><path d="M 193 20.261719 L 340.121094 20.261719 L 340.121094 345.761719 L 193 345.761719 Z M 193 20.261719 " clip-rule="nonzero"/></clipPath><clipPath id="1165db3d24"><path d="M 34.871094 20.261719 L 182 20.261719 L 182 345.761719 L 34.871094 345.761719 Z M 34.871094 20.261719 " clip-rule="nonzero"/></clipPath></defs><path fill="#545454" d="M 234.339844 293.128906 C 234.339844 297.695312 230.632812 301.398438 226.066406 301.398438 C 221.496094 301.398438 217.789062 297.695312 217.789062 293.128906 C 217.789062 288.558594 221.496094 284.859375 226.066406 284.859375 C 230.632812 284.859375 234.339844 288.558594 234.339844 293.128906 " fill-opacity="1" fill-rule="nonzero"/><path fill="#ffffff" d="M 284.832031 265.363281 C 284.832031 269.933594 281.128906 273.632812 276.558594 273.632812 C 271.988281 273.632812 268.285156 269.933594 268.285156 265.363281 C 268.285156 260.796875 271.988281 257.09375 276.558594 257.09375 C 281.128906 257.09375 284.832031 260.796875 284.832031 265.363281 " fill-opacity="1" fill-rule="nonzero"/><path fill="#545454" d="M 55.804688 230.472656 C 51.578125 226.414062 49.25 220.96875 49.25 215.136719 C 49.25 209.761719 51.28125 204.625 54.972656 200.660156 L 55.410156 200.191406 C 57.183594 198.289062 57.582031 195.480469 56.414062 193.152344 L 56.128906 192.582031 C 54.621094 189.574219 53.851562 186.371094 53.851562 183.054688 C 53.851562 177.683594 55.882812 172.546875 59.570312 168.578125 L 60.101562 168.015625 C 62.164062 165.792969 62.335938 162.414062 60.496094 160.003906 L 60.03125 159.386719 C 56.84375 155.199219 55.339844 150.140625 55.734375 144.882812 C 56.699219 132.113281 70.226562 121.703125 82.65625 126.71875 C 88.707031 129.160156 93.351562 134.5 94.902344 140.84375 C 95.582031 143.605469 97.984375 145.589844 100.832031 145.464844 L 101.507812 145.4375 C 105.191406 145.28125 107.742188 141.785156 106.898438 138.199219 C 103.496094 123.742188 90.503906 112.945312 75.015625 112.945312 C 73.890625 112.945312 72.785156 113.019531 71.6875 113.128906 C 71.636719 112.585938 71.605469 112.039062 71.605469 111.492188 C 71.605469 104.542969 75.777344 98.367188 82.238281 95.765625 L 82.40625 95.691406 C 85.195312 94.484375 86.917969 91.640625 86.695312 88.609375 L 86.6875 88.476562 C 86.660156 88.109375 86.628906 87.746094 86.628906 87.375 C 86.628906 79.257812 92.40625 72.253906 100.371094 70.722656 C 103.78125 70.066406 106.226562 67.054688 106.167969 63.585938 C 106.167969 63.425781 106.160156 63.269531 106.148438 63.097656 C 106.234375 53.816406 113.816406 46.285156 123.125 46.285156 C 125.765625 46.285156 128.191406 46.800781 130.3125 48.449219 C 133.078125 50.605469 135.328125 53.660156 136.515625 56.957031 C 137.132812 58.667969 137.480469 60.367188 137.601562 62.027344 C 137.839844 65.289062 140.699219 67.660156 143.953125 67.289062 L 145.859375 67.078125 C 148.808594 66.746094 150.96875 64.148438 150.75 61.191406 C 150.09375 51.832031 145.492188 43.742188 138.707031 38.355469 C 141.859375 35.941406 145.707031 34.582031 149.777344 34.582031 C 159.167969 34.582031 167.082031 41.761719 168.183594 51.277344 L 168.320312 52.210938 L 168.320312 313.570312 L 168.21875 314.585938 C 167.226562 324.246094 159.296875 331.53125 149.777344 331.53125 C 145.160156 331.53125 140.734375 329.78125 137.316406 326.605469 L 137.042969 326.351562 C 135.871094 325.261719 134.316406 324.660156 132.710938 324.6875 L 132.34375 324.691406 L 131.882812 324.714844 C 123.007812 324.640625 115.179688 319.019531 112.125 310.917969 C 122.078125 305.597656 128.871094 295.109375 128.871094 283.0625 C 128.871094 282.828125 128.867188 282.597656 128.859375 282.367188 C 128.78125 278.933594 125.492188 276.476562 122.160156 277.316406 L 121.285156 277.539062 C 118.757812 278.171875 117.023438 280.457031 117.015625 283.0625 C 116.992188 292.582031 110.261719 300.503906 101.328125 302.367188 C 100.53125 302.457031 99.757812 302.519531 99 302.519531 C 87.253906 302.519531 77.699219 292.96875 77.699219 281.230469 C 77.699219 280.550781 77.734375 279.839844 77.808594 279.113281 L 77.890625 278.25 C 78.203125 275.082031 76.09375 272.144531 72.996094 271.546875 C 68.152344 270.605469 63.421875 268.851562 60.015625 265.289062 C 52.699219 257.632812 52.183594 247.199219 56.960938 239.339844 L 57.34375 238.707031 C 58.859375 236.214844 58.4375 233.007812 56.339844 230.984375 L 55.804688 230.472656 " fill-opacity="1" fill-rule="nonzero"/><g clip-path="url(#957a3eff54)"><path fill="#ffffff" d="M 319.191406 230.472656 L 318.660156 230.984375 C 316.554688 233.007812 316.140625 236.214844 317.65625 238.707031 L 318.035156 239.339844 C 322.808594 247.199219 322.296875 257.632812 314.980469 265.289062 C 311.574219 268.851562 306.839844 270.605469 302 271.546875 C 298.902344 272.144531 296.792969 275.082031 297.105469 278.25 L 297.1875 279.113281 C 297.257812 279.839844 297.296875 280.550781 297.296875 281.230469 C 297.296875 292.96875 287.742188 302.519531 275.996094 302.519531 C 275.238281 302.519531 274.464844 302.457031 273.667969 302.367188 C 264.734375 300.503906 258.003906 292.582031 257.976562 283.0625 C 257.972656 280.457031 256.238281 278.171875 253.710938 277.539062 L 252.835938 277.316406 C 249.503906 276.476562 246.214844 278.933594 246.132812 282.367188 C 246.128906 282.597656 246.125 282.828125 246.125 283.0625 C 246.125 295.109375 252.917969 305.597656 262.871094 310.917969 C 259.8125 319.019531 251.984375 324.640625 243.117188 324.714844 L 242.652344 324.691406 L 242.285156 324.6875 C 240.679688 324.660156 239.128906 325.261719 237.953125 326.347656 L 237.679688 326.605469 C 234.257812 329.78125 229.832031 331.53125 225.21875 331.53125 C 215.695312 331.53125 207.769531 324.246094 206.78125 314.585938 L 206.675781 313.570312 L 206.675781 52.210938 L 206.8125 51.277344 C 207.914062 41.761719 215.828125 34.582031 225.21875 34.582031 C 229.289062 34.582031 233.136719 35.941406 236.289062 38.355469 C 229.503906 43.742188 224.90625 51.832031 224.246094 61.191406 C 224.027344 64.148438 226.1875 66.746094 229.136719 67.078125 L 231.042969 67.289062 C 234.292969 67.660156 237.15625 65.289062 237.394531 62.027344 C 237.515625 60.367188 237.863281 58.667969 238.480469 56.957031 C 239.667969 53.660156 241.914062 50.605469 244.679688 48.449219 C 246.800781 46.800781 249.230469 46.285156 251.871094 46.285156 C 261.175781 46.285156 268.761719 53.816406 268.847656 63.097656 C 268.835938 63.269531 268.828125 63.425781 268.828125 63.585938 C 268.769531 67.054688 271.214844 70.066406 274.621094 70.722656 C 282.589844 72.253906 288.371094 79.257812 288.371094 87.375 C 288.371094 87.746094 288.335938 88.109375 288.308594 88.476562 L 288.296875 88.609375 C 288.078125 91.640625 289.800781 94.484375 292.589844 95.691406 L 292.753906 95.765625 C 299.214844 98.367188 303.390625 104.542969 303.390625 111.492188 C 303.390625 112.039062 303.359375 112.585938 303.308594 113.128906 C 302.207031 113.019531 301.105469 112.945312 299.980469 112.945312 C 284.492188 112.945312 271.5 123.742188 268.097656 138.199219 C 267.253906 141.785156 269.804688 145.28125 273.484375 145.4375 L 274.164062 145.464844 C 277.007812 145.589844 279.417969 143.605469 280.089844 140.84375 C 281.644531 134.5 286.289062 129.160156 292.339844 126.71875 C 304.765625 121.703125 318.296875 132.113281 319.257812 144.882812 C 319.65625 150.140625 318.152344 155.199219 314.964844 159.386719 L 314.5 160.003906 C 312.664062 162.414062 312.828125 165.792969 314.894531 168.015625 L 315.421875 168.578125 C 319.113281 172.546875 321.144531 177.683594 321.144531 183.054688 C 321.144531 186.371094 320.375 189.574219 318.867188 192.582031 L 318.582031 193.152344 C 317.414062 195.480469 317.8125 198.289062 319.589844 200.191406 L 320.019531 200.660156 C 323.710938 204.625 325.746094 209.761719 325.746094 215.136719 C 325.746094 220.96875 323.417969 226.414062 319.191406 230.472656 Z M 340.042969 215.136719 C 340.042969 207.730469 337.746094 200.597656 333.5 194.613281 C 334.789062 190.898438 335.441406 187.03125 335.441406 183.054688 C 335.441406 175.957031 333.328125 169.109375 329.414062 163.285156 C 332.179688 158.148438 333.621094 152.449219 333.621094 146.535156 C 333.621094 134.234375 327.367188 123.054688 317.265625 116.589844 C 317.546875 114.90625 317.6875 113.207031 317.6875 111.492188 C 317.6875 100.359375 311.882812 90.308594 302.554688 84.71875 C 301.539062 72.789062 293.75 62.527344 282.742188 58.246094 C 280.339844 43.378906 267.410156 31.992188 251.871094 31.992188 C 251.332031 31.992188 250.789062 32.007812 250.25 32.035156 C 244.050781 24.609375 234.988281 20.289062 225.21875 20.289062 C 210.65625 20.289062 198.109375 29.933594 193.890625 43.542969 L 193.890625 322.519531 C 198.078125 336.167969 210.570312 345.824219 225.21875 345.824219 C 232.503906 345.824219 239.507812 343.394531 245.230469 338.933594 C 258.910156 338.046875 270.839844 329.292969 275.929688 316.816406 L 275.996094 316.816406 C 294.699219 316.816406 310.085938 302.316406 311.488281 283.972656 C 325.679688 279.125 335.441406 265.839844 335.441406 250.359375 C 335.441406 245.683594 334.507812 241.058594 332.714844 236.753906 C 337.472656 230.574219 340.042969 223.070312 340.042969 215.136719 " fill-opacity="1" fill-rule="nonzero"/></g><g clip-path="url(#1165db3d24)"><path fill="#ffffff" d="M 49.25 215.136719 C 49.25 209.761719 51.28125 204.625 54.972656 200.660156 L 55.410156 200.191406 C 57.183594 198.289062 57.582031 195.480469 56.414062 193.152344 L 56.128906 192.582031 C 54.621094 189.574219 53.851562 186.371094 53.851562 183.054688 C 53.851562 177.683594 55.882812 172.546875 59.570312 168.578125 L 60.101562 168.015625 C 62.164062 165.792969 62.335938 162.414062 60.496094 160.003906 L 60.03125 159.386719 C 56.84375 155.199219 55.339844 150.140625 55.734375 144.882812 C 56.699219 132.113281 70.226562 121.703125 82.65625 126.71875 C 88.707031 129.160156 93.351562 134.5 94.902344 140.84375 C 95.582031 143.605469 97.988281 145.589844 100.832031 145.464844 L 101.507812 145.4375 C 105.191406 145.28125 107.742188 141.785156 106.898438 138.199219 C 103.496094 123.742188 90.503906 112.945312 75.015625 112.945312 C 73.890625 112.945312 72.785156 113.019531 71.6875 113.128906 C 71.636719 112.585938 71.605469 112.039062 71.605469 111.492188 C 71.605469 104.542969 75.777344 98.367188 82.238281 95.765625 L 82.40625 95.691406 C 85.195312 94.484375 86.917969 91.640625 86.695312 88.609375 L 86.6875 88.476562 C 86.660156 88.109375 86.628906 87.746094 86.628906 87.375 C 86.628906 79.257812 92.40625 72.253906 100.371094 70.722656 C 103.78125 70.066406 106.226562 67.054688 106.167969 63.585938 C 106.167969 63.425781 106.160156 63.269531 106.148438 63.097656 C 106.234375 53.816406 113.816406 46.285156 123.125 46.285156 C 125.765625 46.285156 128.191406 46.800781 130.3125 48.449219 C 133.078125 50.605469 135.328125 53.660156 136.515625 56.957031 C 137.128906 58.667969 137.480469 60.367188 137.601562 62.027344 C 137.839844 65.289062 140.699219 67.660156 143.953125 67.289062 L 145.859375 67.078125 C 148.808594 66.746094 150.96875 64.148438 150.75 61.191406 C 150.09375 51.832031 145.492188 43.742188 138.707031 38.355469 C 141.859375 35.941406 145.707031 34.582031 149.777344 34.582031 C 159.167969 34.582031 167.082031 41.761719 168.183594 51.277344 L 168.320312 52.210938 L 168.320312 313.570312 L 168.21875 314.585938 C 167.226562 324.246094 159.296875 331.53125 149.777344 331.53125 C 145.160156 331.53125 140.734375 329.78125 137.316406 326.605469 L 137.042969 326.347656 C 135.871094 325.261719 134.316406 324.660156 132.710938 324.6875 L 132.34375 324.691406 L 131.882812 324.714844 C 123.007812 324.640625 115.179688 319.019531 112.125 310.917969 C 122.078125 305.597656 128.871094 295.109375 128.871094 283.0625 C 128.871094 282.828125 128.867188 282.597656 128.859375 282.367188 C 128.78125 278.933594 125.492188 276.476562 122.160156 277.316406 L 121.285156 277.539062 C 118.757812 278.171875 117.023438 280.457031 117.015625 283.0625 C 116.992188 292.582031 110.261719 300.503906 101.328125 302.367188 C 100.53125 302.457031 99.757812 302.519531 99 302.519531 C 87.253906 302.519531 77.699219 292.96875 77.699219 281.230469 C 77.699219 280.550781 77.734375 279.839844 77.808594 279.113281 L 77.890625 278.25 C 78.203125 275.082031 76.09375 272.144531 72.996094 271.546875 C 68.152344 270.605469 63.421875 268.851562 60.015625 265.289062 C 52.699219 257.632812 52.183594 247.199219 56.960938 239.339844 L 57.34375 238.707031 C 58.859375 236.214844 58.4375 233.007812 56.339844 230.984375 L 55.804688 230.472656 C 51.578125 226.414062 49.25 220.96875 49.25 215.136719 Z M 42.28125 236.753906 C 40.488281 241.058594 39.550781 245.683594 39.550781 250.359375 C 39.550781 265.839844 49.320312 279.125 63.503906 283.972656 C 64.910156 302.316406 80.292969 316.816406 99 316.816406 L 99.066406 316.816406 C 104.152344 329.292969 116.082031 338.046875 129.761719 338.933594 C 135.488281 343.394531 142.492188 345.824219 149.777344 345.824219 C 164.425781 345.824219 176.917969 336.167969 181.105469 322.519531 L 181.105469 43.542969 C 176.886719 29.933594 164.339844 20.289062 149.777344 20.289062 C 140.003906 20.289062 130.945312 24.609375 124.746094 32.035156 C 124.203125 32.007812 123.664062 31.992188 123.125 31.992188 C 107.585938 31.992188 94.65625 43.378906 92.25 58.246094 C 81.246094 62.527344 73.453125 72.789062 72.4375 84.71875 C 63.113281 90.308594 57.304688 100.359375 57.304688 111.492188 C 57.304688 113.207031 57.445312 114.90625 57.730469 116.589844 C 47.628906 123.054688 41.375 134.234375 41.375 146.535156 C 41.375 152.449219 42.816406 158.148438 45.582031 163.285156 C 41.667969 169.109375 39.550781 175.957031 39.550781 183.054688 C 39.550781 187.03125 40.207031 190.898438 41.496094 194.613281 C 37.25 200.597656 34.949219 207.730469 34.949219 215.136719 C 34.949219 223.070312 37.523438 230.574219 42.28125 236.753906 " fill-opacity="1" fill-rule="nonzero"/></g><path fill="#545454" d="M 235.324219 108.136719 C 235.324219 113.25 231.175781 117.390625 226.066406 117.390625 C 220.953125 117.390625 216.808594 113.25 216.808594 108.136719 C 216.808594 103.023438 220.953125 98.882812 226.066406 98.882812 C 231.175781 98.882812 235.324219 103.023438 235.324219 108.136719 " fill-opacity="1" fill-rule="nonzero"/><path fill="#ffffff" d="M 280.050781 105.492188 C 280.050781 110.605469 275.90625 114.75 270.792969 114.75 C 265.683594 114.75 261.535156 110.605469 261.535156 105.492188 C 261.535156 100.378906 265.683594 96.238281 270.792969 96.238281 C 275.90625 96.238281 280.050781 100.378906 280.050781 105.492188 " fill-opacity="1" fill-rule="nonzero"/><path fill="#ffffff" d="M 249.652344 156.171875 C 249.652344 165.300781 242.25 172.699219 233.121094 172.699219 C 223.988281 172.699219 216.589844 165.300781 216.589844 156.171875 C 216.589844 147.046875 223.988281 139.648438 233.121094 139.648438 C 242.25 139.648438 249.652344 147.046875 249.652344 156.171875 " fill-opacity="1" fill-rule="nonzero"/><path fill="#ffffff" d="M 247.003906 245.636719 C 247.003906 254.761719 239.605469 262.160156 230.472656 262.160156 C 221.34375 262.160156 213.945312 254.761719 213.945312 245.636719 C 213.945312 236.507812 221.34375 229.109375 230.472656 229.109375 C 239.605469 229.109375 247.003906 236.507812 247.003906 245.636719 " fill-opacity="1" fill-rule="nonzero"/><path fill="#545454" d="M 287.324219 212.582031 C 287.324219 221.710938 279.921875 229.109375 270.792969 229.109375 C 261.664062 229.109375 254.261719 221.710938 254.261719 212.582031 C 254.261719 203.457031 261.664062 196.058594 270.792969 196.058594 C 279.921875 196.058594 287.324219 203.457031 287.324219 212.582031 " fill-opacity="1" fill-rule="nonzero"/><path fill="#545454" d="M 293.101562 164.445312 C 293.101562 169.011719 289.402344 172.714844 284.832031 172.714844 C 280.265625 172.714844 276.558594 169.011719 276.558594 164.445312 C 276.558594 159.875 280.265625 156.171875 284.832031 156.171875 C 289.402344 156.171875 293.101562 159.875 293.101562 164.445312 " fill-opacity="1" fill-rule="nonzero"/><path fill="#545454" d="M 257.921875 82.136719 C 257.921875 86.707031 254.21875 90.40625 249.652344 90.40625 C 245.082031 90.40625 241.375 86.707031 241.375 82.136719 C 241.375 77.566406 245.082031 73.867188 249.652344 73.867188 C 254.21875 73.867188 257.921875 77.566406 257.921875 82.136719 " fill-opacity="1" fill-rule="nonzero"/><path fill="#545454" d="M 247.019531 193.632812 C 247.019531 198.203125 243.316406 201.902344 238.746094 201.902344 C 234.175781 201.902344 230.472656 198.203125 230.472656 193.632812 C 230.472656 189.0625 234.175781 185.363281 238.746094 185.363281 C 243.316406 185.363281 247.019531 189.0625 247.019531 193.632812 " fill-opacity="1" fill-rule="nonzero"/><path fill="#ffffff" d="M 314.128906 220.851562 C 314.128906 225.421875 310.421875 229.125 305.855469 229.125 C 301.285156 229.125 297.578125 225.421875 297.578125 220.851562 C 297.578125 216.285156 301.285156 212.582031 305.855469 212.582031 C 310.421875 212.582031 314.128906 216.285156 314.128906 220.851562 " fill-opacity="1" fill-rule="nonzero"/></svg>